<svg width="37" height="16" viewBox="0 0 37 16" fill="none" xmlns="http://www.w3.org/2000/svg">
<path d="M1.86583 0.690954L1.87668 0.716266C2.04663 1.32013 1.58741 1.91315 0.958229 1.91315H0.947381C0.423067 1.91315 0 1.49008 0 0.969383V0.944071C0 0.423373 0.412219 0.0111539 0.932917 0.000306057C1.35598 -0.0105418 1.74289 0.267887 1.86583 0.690954ZM2.20212 4.40816V12.0234C2.20212 12.5441 1.77905 12.9671 1.25835 12.9671H0.954613C0.433915 12.9671 0.0108479 12.5441 0.0108479 12.0234V4.40816C0.0108479 3.88746 0.433915 3.46439 0.954613 3.46439H1.25835C1.77905 3.46439 2.20212 3.88746 2.20212 4.40816Z" fill="#3387FD"/>
<path d="M3.94507 12.4224V3.99718C3.94507 3.69344 4.18734 3.45117 4.49108 3.45117H5.20704C5.46015 3.45117 5.69158 3.63197 5.73858 3.8887C5.8109 4.28646 6.28459 4.45641 6.61003 4.21414C7.27537 3.70429 8.00217 3.45117 8.8013 3.45117C10.8696 3.45117 11.911 4.62636 11.911 6.96227V12.4079C11.911 12.7116 11.6688 12.9539 11.365 12.9539H10.2513C9.94756 12.9539 9.70529 12.7116 9.70529 12.4079V6.96227C9.70529 5.91002 9.22075 5.38933 8.26614 5.38933C7.62611 5.38933 6.98247 5.64244 6.36414 6.15229C6.23035 6.26077 6.15804 6.40541 6.15804 6.57536V12.4224C6.15804 12.7261 5.91577 12.9684 5.61203 12.9684H4.49831C4.18734 12.9648 3.94507 12.7225 3.94507 12.4224Z" fill="#3387FD"/>
<path d="M14.2577 1.9126H14.5361C14.8868 1.9126 15.1906 2.15487 15.2629 2.50561L15.3352 2.86721C15.4075 3.20711 15.7113 3.46023 16.062 3.46023H16.9082C17.3204 3.46023 17.6603 3.80013 17.6603 4.21235V4.6101C17.6603 5.02232 17.3204 5.36222 16.9082 5.36222H16.4489C16.0367 5.36222 15.6968 5.70212 15.6968 6.11434V9.73392C15.6968 10.6162 16.0476 11.0646 16.7491 11.0646H16.8937C17.3059 11.0646 17.6458 11.4045 17.6458 11.8167V12.2145C17.6458 12.6267 17.3059 12.9666 16.8937 12.9666H15.6823C14.2179 12.9666 13.4802 12.106 13.4802 10.3993V2.66472C13.5092 2.2525 13.8491 1.9126 14.2577 1.9126Z" fill="#3387FD"/>
<path d="M23.9557 12.9431C24.1365 12.9322 24.2956 12.8454 24.4149 12.7116L25.4455 11.4533C25.6263 11.2219 25.4455 10.8856 25.1562 10.9326C24.5523 11.0158 23.9593 11.0519 23.3518 11.0519C22.0573 11.0519 21.222 10.712 20.8568 10.0214C20.6146 9.57299 20.9653 9.04144 21.4607 9.04144H25.8179C26.1795 9.04144 26.4724 8.75217 26.4941 8.40142C26.505 8.22062 26.505 8.05067 26.505 7.86987C26.505 4.9301 25.1743 3.45117 22.5238 3.45117C19.7865 3.45117 18.4197 4.9988 18.4197 8.09768C18.4197 11.3412 20.0071 12.9648 23.1783 12.9648C23.4459 12.9648 23.7026 12.9539 23.9557 12.9431ZM22.5274 5.3387C23.7496 5.3387 24.3535 5.99319 24.3535 7.31302V7.38534H21.4354C20.9762 7.38534 20.6363 6.92611 20.7954 6.50304C21.0738 5.72923 21.6415 5.3387 22.5274 5.3387Z" fill="#3387FD"/>
<path d="M29.4266 7.87826L26.7146 4.25869C26.4723 3.93325 26.7038 3.45956 27.1124 3.45956H27.9006C28.4466 3.45956 28.9529 3.71268 29.2819 4.15021L30.5656 5.86779C30.7717 6.13537 31.1695 6.13537 31.3647 5.86779L33.9067 2.46517C34.4274 1.77452 35.2519 1.3623 36.1089 1.3623H36.3511C36.7634 1.3623 36.9912 1.836 36.7489 2.16143L32.5001 7.87465C32.3663 8.05544 32.3663 8.29771 32.5001 8.46766L35.2013 12.0872C35.4435 12.4127 35.2121 12.8864 34.8035 12.8864H34.7312C33.7368 12.8864 32.793 12.4127 32.2 11.6172L31.3503 10.4818C31.1442 10.2142 30.7464 10.2142 30.5511 10.4818L28.7468 12.89L27.2208 14.8028C26.6278 15.5296 25.7564 15.9635 24.8235 15.9997C24.4004 16.0106 24.1581 15.5405 24.4112 15.2006L29.4338 8.48213C29.5604 8.30494 29.5604 8.04821 29.4266 7.87826Z" fill="#3387FE"/>
<path d="M36.3729 1.37158H36.1307C35.2592 1.37158 34.4492 1.7838 33.9285 2.47445L31.3865 5.87707C31.0249 6.28928 30.6344 5.92407 30.6344 5.92407L32.7534 8.76983L32.5364 8.48056C32.4026 8.29976 32.4026 8.05749 32.5364 7.88754L36.7851 2.17432C37.0166 1.84527 36.7851 1.37158 36.3729 1.37158Z" fill="#1DC3FC"/>
</svg>
