<svg width="121" height="62" viewBox="0 0 121 62" fill="none" xmlns="http://www.w3.org/2000/svg">
<path d="M120.031 62H0V0H120.031V62ZM0.238976 61.761H119.793V0.238979H0.238976V61.761Z" fill="black"/>
<path d="M38.5631 10.3118H39.7385V35.7541H39.0255V11.2026H38.9546L28.1579 35.7541H27.3739L16.5772 11.2026H16.5063V35.7541H15.7932V10.3118H16.9687L27.7304 34.8273H27.8013L38.5631 10.3118Z" fill="black"/>
<path d="M45.441 27.3814L42.0555 35.7553H41.2356L51.5689 10.313H52.4957L62.5444 35.7553H61.7604L58.4109 27.3814H45.441ZM58.1262 26.6684L52.0683 11.0251H51.9973L45.7256 26.6684H58.1262Z" fill="black"/>
<path d="M64.7897 26.739V35.7541H64.0767V10.3118H64.7897V25.7763L82.4284 10.3118H83.497L71.2042 21.1444L84.21 35.7541H83.2483L70.634 21.5728L64.7897 26.739Z" fill="black"/>
<path d="M85.9196 22.8552V35.7541H85.2065V10.3118H85.9196V22.1421H103.736V10.3118H104.449V35.7541H103.736V22.8552H85.9196Z" fill="black"/>
<path d="M15.4265 43.9385H16.4339V47.1928H20.4198V43.9385H21.4272V51.508H20.4198V48.0409H16.4339V51.508H15.4265V43.9385Z" fill="black"/>
<path d="M29.6538 47.723C29.6538 47.2072 29.7296 46.7108 29.8821 46.2338C30.0336 45.7568 30.2619 45.3342 30.566 44.967C30.8701 44.5998 31.248 44.3064 31.7007 44.0869C32.1524 43.8683 32.6799 43.7585 33.2802 43.7585C33.8806 43.7585 34.4071 43.8683 34.8598 44.0869C35.3115 44.3064 35.6904 44.5998 35.9945 44.967C36.2985 45.3342 36.5259 45.7568 36.6784 46.2338C36.8299 46.7108 36.9067 47.2072 36.9067 47.723C36.9067 48.2389 36.8309 48.7353 36.6784 49.2123C36.5259 49.6893 36.2985 50.1118 35.9945 50.479C35.6904 50.8463 35.3125 51.1396 34.8598 51.3592C34.4071 51.5778 33.8806 51.6875 33.2802 51.6875C32.6799 51.6875 32.1524 51.5778 31.7007 51.3592C31.248 51.1406 30.8701 50.8472 30.566 50.479C30.2619 50.1118 30.0346 49.6893 29.8821 49.2123C29.7296 48.7353 29.6538 48.2389 29.6538 47.723ZM30.6602 47.723C30.6602 48.1048 30.7098 48.4808 30.8089 48.8519C30.908 49.223 31.0634 49.5571 31.2752 49.8534C31.4869 50.1507 31.7589 50.3887 32.0912 50.5694C32.4234 50.7501 32.8188 50.8395 33.2783 50.8395C33.7378 50.8395 34.1332 50.7491 34.4654 50.5694C34.7976 50.3887 35.0697 50.1507 35.2814 49.8534C35.4932 49.5562 35.6486 49.223 35.7477 48.8519C35.8468 48.4808 35.8964 48.1048 35.8964 47.723C35.8964 47.3413 35.8468 46.9653 35.7477 46.5942C35.6486 46.2231 35.4932 45.8889 35.2814 45.5926C35.0697 45.2954 34.7976 45.0574 34.4654 44.8767C34.1332 44.696 33.7378 44.6066 33.2783 44.6066C32.8188 44.6066 32.4234 44.697 32.0912 44.8767C31.7589 45.0574 31.4869 45.2954 31.2752 45.5926C31.0634 45.8899 30.908 46.2231 30.8089 46.5942C30.7098 46.9653 30.6602 47.3413 30.6602 47.723Z" fill="black"/>
<path d="M51.1748 48.7724C51.1748 49.7332 50.9154 50.4598 50.3957 50.9514C49.8759 51.4429 49.1425 51.6877 48.1963 51.6877C47.7086 51.6877 47.2725 51.6314 46.8868 51.5177C46.5011 51.4051 46.1767 51.2282 45.9114 50.9873C45.6462 50.7474 45.4432 50.4433 45.3014 50.0751C45.1595 49.7079 45.0896 49.2727 45.0896 48.7714V43.9375H46.097V48.7714C46.097 49.4427 46.2787 49.9556 46.643 50.3083C47.0072 50.6619 47.5241 50.8387 48.1963 50.8387C48.8394 50.8387 49.329 50.6619 49.6642 50.3083C49.9993 49.9547 50.1674 49.4427 50.1674 48.7714V43.9375H51.1748V48.7724Z" fill="black"/>
<path d="M64.161 46.1544C64.1046 45.6104 63.9084 45.216 63.5723 44.9721C63.2361 44.7283 62.8068 44.6069 62.2841 44.6069C62.0723 44.6069 61.8635 44.6282 61.6585 44.67C61.4535 44.7127 61.2719 44.7827 61.1125 44.8818C60.9532 44.9809 60.826 45.113 60.7308 45.2791C60.6356 45.4452 60.588 45.6521 60.588 45.8989C60.588 46.132 60.6569 46.3215 60.7949 46.4662C60.9328 46.611 61.1164 46.7295 61.3467 46.8218C61.5759 46.9141 61.8363 46.9898 62.1258 47.0501C62.4153 47.1103 62.7125 47.1754 63.0166 47.2463C63.3207 47.3172 63.617 47.3998 63.9074 47.495C64.1969 47.5902 64.4553 47.7194 64.6817 47.8816C64.908 48.0439 65.0897 48.2508 65.2276 48.5014C65.3656 48.752 65.4345 49.0619 65.4345 49.4291C65.4345 49.8323 65.3442 50.1762 65.1645 50.4628C64.9838 50.7493 64.7526 50.9825 64.4699 51.1622C64.1872 51.3429 63.8705 51.475 63.5208 51.5595C63.1711 51.6441 62.8223 51.6868 62.4765 51.6868C62.0529 51.6868 61.6507 51.6334 61.2728 51.5275C60.8949 51.4216 60.5627 51.2594 60.2761 51.0398C59.9895 50.8212 59.7632 50.5434 59.5981 50.2073C59.4319 49.8721 59.3494 49.4738 59.3494 49.0143H60.3033C60.3033 49.332 60.3655 49.6059 60.4889 49.8362C60.6123 50.0654 60.7755 50.2549 60.9765 50.4035C61.1776 50.5521 61.4108 50.6619 61.676 50.7319C61.9412 50.8028 62.2181 50.8377 62.5085 50.8377C62.7349 50.8377 62.9622 50.8164 63.1924 50.7746C63.4217 50.7319 63.6286 50.66 63.8122 50.557C63.9958 50.455 64.1444 50.3151 64.2571 50.1383C64.3698 49.9615 64.4271 49.7352 64.4271 49.4602C64.4271 49.1989 64.3582 48.9871 64.2202 48.8239C64.0823 48.6617 63.9006 48.5286 63.6743 48.4266C63.4479 48.3246 63.1905 48.2391 62.9 48.1721C62.6105 48.1051 62.3133 48.04 62.0092 47.9759C61.7051 47.9117 61.4088 47.836 61.1184 47.7476C60.8289 47.6592 60.5685 47.5406 60.3393 47.392C60.11 47.2434 59.9254 47.0569 59.7885 46.8305C59.6505 46.6042 59.5815 46.3186 59.5815 45.9717C59.5815 45.59 59.6593 45.2597 59.8147 44.9809C59.9701 44.7021 60.177 44.4718 60.4345 44.2921C60.6919 44.1114 60.9853 43.9774 61.3146 43.889C61.643 43.8005 61.981 43.7568 62.3269 43.7568C62.7154 43.7568 63.0759 43.8025 63.4081 43.8948C63.7403 43.9871 64.0298 44.1318 64.2775 44.329C64.5253 44.5272 64.7225 44.7759 64.8711 45.0761C65.0197 45.3762 65.1004 45.7347 65.1149 46.1524H64.161V46.1544Z" fill="black"/>
<path d="M73.6909 43.9385H74.6983V51.508H73.6909V43.9385Z" fill="black"/>
<path d="M83.3818 43.9385H84.4524L88.4382 50.0771H88.4596V43.9385H89.4136V51.508H88.311L84.3572 45.4335H84.3358V51.508H83.3818V43.9385Z" fill="black"/>
<path d="M103.704 50.5645C103.556 50.7627 103.388 50.9317 103.201 51.0736C103.014 51.2154 102.814 51.332 102.602 51.4233C102.39 51.5146 102.17 51.5826 101.944 51.6244C101.718 51.6671 101.495 51.6885 101.277 51.6885C100.711 51.6885 100.206 51.5826 99.7603 51.3708C99.3153 51.1591 98.9365 50.8764 98.6256 50.5228C98.3147 50.1692 98.0777 49.7631 97.9155 49.3036C97.7532 48.8441 97.6716 48.3671 97.6716 47.8726C97.6716 47.3218 97.7474 46.7963 97.8999 46.2979C98.0515 45.7996 98.2778 45.3634 98.578 44.9884C98.8782 44.6134 99.2532 44.3152 99.702 44.0927C100.151 43.8703 100.675 43.7585 101.277 43.7585C101.687 43.7585 102.073 43.8061 102.438 43.9013C102.802 43.9965 103.126 44.1471 103.413 44.3521C103.699 44.5571 103.939 44.8165 104.134 45.1312C104.328 45.446 104.46 45.8258 104.531 46.2707H103.524C103.474 45.988 103.382 45.7403 103.248 45.5285C103.114 45.3168 102.948 45.1438 102.749 45.0088C102.551 44.8747 102.327 44.7737 102.076 44.7067C101.826 44.6397 101.558 44.6056 101.276 44.6056C100.816 44.6056 100.422 44.6979 100.093 44.8815C99.7651 45.0651 99.496 45.307 99.2881 45.6082C99.0793 45.9084 98.9258 46.2513 98.8267 46.637C98.7276 47.0226 98.6781 47.4161 98.6781 47.8192C98.6781 48.2156 98.7344 48.5954 98.8481 48.9587C98.9607 49.323 99.1269 49.6446 99.3464 49.9234C99.565 50.2032 99.836 50.4256 100.158 50.5917C100.479 50.7579 100.852 50.8404 101.276 50.8404C101.664 50.8404 102.012 50.7773 102.32 50.65C102.627 50.5228 102.887 50.3479 103.099 50.1254C103.311 49.903 103.468 49.6417 103.571 49.3405C103.673 49.0403 103.718 48.7168 103.703 48.37H101.286V47.5219H104.605V51.5078H103.969L103.704 50.5645Z" fill="black"/>
</svg>
