<svg width="140" height="72" viewBox="0 0 140 72" fill="none" xmlns="http://www.w3.org/2000/svg">
<path d="M139.39 72H0V0H139.39V72ZM0.277521 71.7225H139.114V0.277524H0.277521V71.7225Z" fill="white"/>
<path d="M44.7842 11.9756H46.1493V41.5215H45.3212V13.0101H45.2388L32.7007 41.5215H31.7903L19.2522 13.0101H19.1698V41.5215H18.3418V11.9756H19.7068L32.2043 40.4453H32.2867L44.7842 11.9756Z" fill="white"/>
<path d="M52.7712 31.7982L48.8396 41.5227H47.8875L59.8874 11.9768H60.9637L72.6331 41.5227H71.7227L67.8329 31.7982H52.7712ZM67.5024 30.9701L60.4673 12.8037H60.385L53.1017 30.9701H67.5024Z" fill="white"/>
<path d="M75.2404 31.0524V41.5215H74.4124V11.9756H75.2404V29.9344L95.724 11.9756H96.9649L82.6895 24.5554L97.793 41.5215H96.6761L82.0273 25.053L75.2404 31.0524Z" fill="white"/>
<path d="M99.7782 26.5421V41.5215H98.9502V11.9756H99.7782V25.714H120.468V11.9756H121.296V41.5215H120.468V26.5421H99.7782Z" fill="white"/>
<path d="M17.915 51.0242H19.0849V54.8034H23.7137V51.0242H24.8835V59.8146H23.7137V55.7883H19.0849V59.8146H17.915V51.0242Z" fill="white"/>
<path d="M34.4365 55.4196C34.4365 54.8206 34.5245 54.2441 34.7016 53.6902C34.8776 53.1363 35.1427 52.6455 35.4958 52.2191C35.849 51.7926 36.2878 51.4519 36.8135 51.197C37.3381 50.9432 37.9507 50.8157 38.6479 50.8157C39.3451 50.8157 39.9565 50.9432 40.4822 51.197C41.0068 51.4519 41.4468 51.7926 41.7999 52.2191C42.153 52.6455 42.417 53.1363 42.5941 53.6902C42.7701 54.2441 42.8592 54.8206 42.8592 55.4196C42.8592 56.0186 42.7712 56.5951 42.5941 57.149C42.417 57.7029 42.153 58.1937 41.7999 58.6201C41.4468 59.0466 41.0079 59.3873 40.4822 59.6422C39.9565 59.8961 39.3451 60.0235 38.6479 60.0235C37.9507 60.0235 37.3381 59.8961 36.8135 59.6422C36.2878 59.3884 35.849 59.0477 35.4958 58.6201C35.1427 58.1937 34.8788 57.7029 34.7016 57.149C34.5245 56.5951 34.4365 56.0186 34.4365 55.4196ZM35.6053 55.4196C35.6053 55.863 35.6628 56.2995 35.7779 56.7305C35.893 57.1614 36.0735 57.5495 36.3194 57.8936C36.5653 58.2388 36.8812 58.5152 37.267 58.725C37.6528 58.9349 38.112 59.0387 38.6456 59.0387C39.1792 59.0387 39.6384 58.9338 40.0242 58.725C40.41 58.5152 40.7259 58.2388 40.9718 57.8936C41.2178 57.5484 41.3983 57.1614 41.5133 56.7305C41.6284 56.2995 41.6859 55.863 41.6859 55.4196C41.6859 54.9762 41.6284 54.5397 41.5133 54.1087C41.3983 53.6778 41.2178 53.2897 40.9718 52.9456C40.7259 52.6004 40.41 52.324 40.0242 52.1142C39.6384 51.9043 39.1792 51.8005 38.6456 51.8005C38.112 51.8005 37.6528 51.9055 37.267 52.1142C36.8812 52.324 36.5653 52.6004 36.3194 52.9456C36.0735 53.2908 35.893 53.6778 35.7779 54.1087C35.6628 54.5397 35.6053 54.9762 35.6053 55.4196Z" fill="white"/>
<path d="M59.4277 56.6377C59.4277 57.7534 59.1265 58.5973 58.523 59.1681C57.9194 59.7389 57.0677 60.0232 55.9689 60.0232C55.4025 60.0232 54.896 59.9578 54.4481 59.8258C54.0003 59.6949 53.6235 59.4896 53.3155 59.2098C53.0075 58.9312 52.7717 58.5781 52.607 58.1505C52.4423 57.7241 52.3611 57.2187 52.3611 56.6366V51.0229H53.531V56.6366C53.531 57.4161 53.7419 58.0118 54.165 58.4213C54.588 58.8319 55.1882 59.0372 55.9689 59.0372C56.7157 59.0372 57.2843 58.8319 57.6735 58.4213C58.0627 58.0106 58.2579 57.4161 58.2579 56.6366V51.0229H59.4277V56.6377Z" fill="white"/>
<path d="M74.5088 53.5975C74.4434 52.9657 74.2155 52.5077 73.8252 52.2245C73.4348 51.9414 72.9362 51.8004 72.3292 51.8004C72.0833 51.8004 71.8408 51.8252 71.6027 51.8737C71.3647 51.9233 71.1537 52.0045 70.9687 52.1196C70.7837 52.2347 70.6359 52.3881 70.5254 52.581C70.4148 52.7739 70.3595 53.0142 70.3595 53.3008C70.3595 53.5715 70.4396 53.7915 70.5998 53.9596C70.76 54.1277 70.9732 54.2653 71.2406 54.3725C71.5068 54.4797 71.8092 54.5677 72.1454 54.6376C72.4815 54.7076 72.8268 54.7831 73.1799 54.8655C73.533 54.9479 73.877 55.0437 74.2144 55.1543C74.5505 55.2649 74.8506 55.4149 75.1135 55.6033C75.3763 55.7917 75.5873 56.032 75.7475 56.3231C75.9077 56.6141 75.9878 56.974 75.9878 57.4004C75.9878 57.8686 75.8829 58.268 75.6742 58.6008C75.4643 58.9336 75.1958 59.2043 74.8676 59.413C74.5393 59.6229 74.1715 59.7763 73.7654 59.8744C73.3592 59.9726 72.9542 60.0222 72.5526 60.0222C72.0607 60.0222 71.5937 59.9602 71.1549 59.8372C70.716 59.7142 70.3302 59.5258 69.9974 59.2709C69.6646 59.017 69.4017 58.6944 69.2099 58.3041C69.017 57.9149 68.9211 57.4523 68.9211 56.9187H70.029C70.029 57.2876 70.1012 57.6057 70.2444 57.8731C70.3877 58.1394 70.5772 58.3593 70.8108 58.5319C71.0443 58.7046 71.3151 58.832 71.623 58.9133C71.931 58.9956 72.2525 59.0362 72.5898 59.0362C72.8527 59.0362 73.1167 59.0114 73.3841 58.9629C73.6503 58.9133 73.8906 58.8298 74.1038 58.7102C74.317 58.5917 74.4896 58.4293 74.6205 58.224C74.7514 58.0186 74.8179 57.7558 74.8179 57.4365C74.8179 57.1331 74.7378 56.8871 74.5776 56.6976C74.4174 56.5092 74.2065 56.3546 73.9436 56.2362C73.6808 56.1177 73.3818 56.0185 73.0445 55.9406C72.7083 55.8628 72.3631 55.7872 72.01 55.7127C71.6569 55.6383 71.3128 55.5503 70.9755 55.4476C70.6393 55.345 70.337 55.2073 70.0707 55.0347C69.8045 54.8621 69.5901 54.6455 69.4311 54.3827C69.2709 54.1198 69.1908 53.7881 69.1908 53.3854C69.1908 52.942 69.281 52.5585 69.4615 52.2347C69.642 51.9109 69.8823 51.6435 70.1813 51.4348C70.4802 51.225 70.8209 51.0693 71.2034 50.9667C71.5847 50.864 71.9773 50.8132 72.3789 50.8132C72.8301 50.8132 73.2487 50.8663 73.6345 50.9734C74.0203 51.0806 74.3565 51.2487 74.6442 51.4777C74.9319 51.7078 75.1609 51.9967 75.3335 52.3452C75.5061 52.6938 75.5997 53.1101 75.6166 53.5952H74.5088V53.5975Z" fill="white"/>
<path d="M85.5776 51.0242H86.7475V59.8146H85.5776V51.0242Z" fill="white"/>
<path d="M96.8293 51.0242H98.0725L102.701 58.1529H102.726V51.0242H103.834V59.8146H102.554L97.962 52.7604H97.9372V59.8146H96.8293V51.0242Z" fill="white"/>
<path d="M120.429 58.7194C120.256 58.9495 120.061 59.1458 119.845 59.3105C119.627 59.4753 119.396 59.6106 119.149 59.7167C118.903 59.8227 118.648 59.9017 118.385 59.9502C118.122 59.9998 117.864 60.0247 117.61 60.0247C116.953 60.0247 116.367 59.9017 115.849 59.6558C115.332 59.4098 114.892 59.0815 114.531 58.6709C114.17 58.2603 113.895 57.7887 113.707 57.2551C113.518 56.7215 113.423 56.1676 113.423 55.5933C113.423 54.9537 113.511 54.3434 113.688 53.7646C113.864 53.1859 114.127 52.6794 114.476 52.2439C114.824 51.8084 115.26 51.4621 115.781 51.2038C116.302 50.9454 116.912 50.8157 117.61 50.8157C118.086 50.8157 118.535 50.8709 118.958 50.9815C119.381 51.0921 119.758 51.2669 120.091 51.505C120.423 51.743 120.702 52.0442 120.928 52.4097C121.153 52.7752 121.307 53.2163 121.389 53.733H120.219C120.162 53.4047 120.055 53.1171 119.899 52.8711C119.743 52.6252 119.55 52.4244 119.32 52.2676C119.09 52.1119 118.829 51.9946 118.538 51.9167C118.247 51.8389 117.937 51.7994 117.609 51.7994C117.075 51.7994 116.617 51.9066 116.236 52.1198C115.854 52.333 115.542 52.6139 115.301 52.9636C115.058 53.3122 114.88 53.7105 114.765 54.1583C114.65 54.6062 114.592 55.0631 114.592 55.5313C114.592 55.9916 114.658 56.4327 114.79 56.8546C114.92 57.2776 115.113 57.6511 115.368 57.9748C115.622 58.2997 115.937 58.5581 116.31 58.751C116.684 58.9439 117.117 59.0398 117.609 59.0398C118.06 59.0398 118.464 58.9665 118.821 58.8187C119.178 58.6709 119.48 58.4678 119.726 58.2095C119.972 57.9511 120.155 57.6477 120.275 57.2979C120.393 56.9494 120.445 56.5737 120.428 56.1709H117.621V55.1861H121.475V59.8148H120.736L120.429 58.7194Z" fill="white"/>
</svg>
